<?xml version="1.0"?>
<svg xmlns="http://www.w3.org/2000/svg" xmlns:xlink="http://www.w3.org/1999/xlink" id="&#x56FE;&#x5C42;_1" data-name="&#x56FE;&#x5C42; 1" viewBox="0 0 339.37 340.16">
  <defs>
    <style>.cls-1{fill:url(#&#x672A;&#x547D;&#x540D;&#x7684;&#x6E10;&#x53D8;);}.cls-2{fill:#4a6cb3;}.cls-3{fill:#103a89;}.cls-4{fill:url(#&#x672A;&#x547D;&#x540D;&#x7684;&#x6E10;&#x53D8;_2);}</style>
    <linearGradient id="&#x672A;&#x547D;&#x540D;&#x7684;&#x6E10;&#x53D8;" x1="0.49" y1="911.46" x2="339.86" y2="911.46" gradientTransform="translate(0.46 -740.38)" gradientUnits="userSpaceOnUse">
      <stop offset="0" stop-color="#4a6cb3"/>
      <stop offset="0.29" stop-color="#476bb1"/>
      <stop offset="0.5" stop-color="#3e66ad"/>
      <stop offset="0.69" stop-color="#2e5ea5"/>
      <stop offset="0.86" stop-color="#185399"/>
      <stop offset="1" stop-color="#00488d"/>
    </linearGradient>
    <linearGradient id="&#x672A;&#x547D;&#x540D;&#x7684;&#x6E10;&#x53D8;_2" x1="119.42" y1="937.56" x2="294.62" y2="937.56" gradientTransform="translate(0.46 -740.38)" gradientUnits="userSpaceOnUse">
      <stop offset="0" stop-color="#6b95ce"/>
      <stop offset="1" stop-color="#4a6cb3"/>
    </linearGradient>
  </defs>
  <path class="cls-1" d="M297.4,341.16a27.19,27.19,0,0,1-11.26-2.5h-.3l-22-11.37a27.72,27.72,0,0,0-19.17-2.46,64.21,64.21,0,0,0-9.64,3.33l-.43.2a163.84,163.84,0,0,1-70.43,11.87A175.82,175.82,0,0,1,51.63,290.89,164.43,164.43,0,0,1,1.13,180,171.58,171.58,0,0,1,18.06,97.45a7.59,7.59,0,0,1,13.63,6.67h0a157.21,157.21,0,0,0-15.43,75.24c3.33,78.43,67.37,141.17,148.81,145.8A148.61,148.61,0,0,0,229.17,314a71.19,71.19,0,0,1,12.17-4,42.68,42.68,0,0,1,29.6,3.66l21.56,11.2a9.54,9.54,0,0,0,8.4.24,5.15,5.15,0,0,0,1.6-4.77l-4.66-38.8a40.91,40.91,0,0,1,5.86-32,8,8,0,0,0,.57-.93,145.49,145.49,0,0,0,20.27-88.24C318.34,78.92,253.54,17,174,16A155.59,155.59,0,0,0,69.4,54.68a7.58,7.58,0,0,1-10-11.4A170.71,170.71,0,0,1,174,1c87.67,1,158.87,69,165.7,158.2a160.58,160.58,0,0,1-22.3,97.2l-.8,1.27a25.75,25.75,0,0,0-4.07,21.2v.7l4.84,40A19.76,19.76,0,0,1,309,337.53,20.86,20.86,0,0,1,297.4,341.16Z" transform="translate(-0.95 -1)"/>
  <circle class="cls-2" cx="62.91" cy="135.42" r="14.73"/>
  <path class="cls-3" d="M138,147a66.38,66.38,0,0,1-40-12.2C76.26,119,77.16,105.39,77,97a29.74,29.74,0,0,1,11.9-25.93c11.17-8.84,21.27-7.94,30-1,9.34,7.24,5.47,21,4,30-1.77,9.77-3,15.84-1.67,22.77C123.36,135.85,124.76,139.09,138,147Z" transform="translate(-0.95 -1)"/>
  <path class="cls-4" d="M135.4,166.09a10.91,10.91,0,0,1,10.47-3.34c14.43,2.9,15.86,4.4,30.33,12.77,18.17,10.5,28.37,19.8,51.07,16.34s49.37-4.47,61.23,1.83c9.64,5,6.67,6.2,3.7,15.83-.56,1.67,1.5,1.3-1.7,7.37-2.13,4-11.66,15.43-16.1,15l-103.73-10.5a10.5,10.5,0,0,1-4.3-1.37l-40.81-22.77A11.17,11.17,0,0,1,121.32,182v0a12.34,12.34,0,0,1,1.4-2Z" transform="translate(-0.95 -1)"/>
  <path class="cls-3" d="M57.23,233.22c-6.67-11.4-14.17-28.9-3.33-41.9s28-30,60.46-30.77c40-1.1,44.61,5.54,73.71,32.91s43.56,32.5,72.27,33.83c24.5,1.1,32.4-19.17,34.73-27.47-.8,15.34-11.9,49.57-47.53,79.24-24.34,20-94.71,33.07-143.54,1.8C68.13,257.32,59.16,236.16,57.23,233.22Z" transform="translate(-0.95 -1)"/>
</svg>
